<?xml version="1.0" encoding="utf-8"?>
<!-- Generator: Adobe Illustrator 16.0.0, SVG Export Plug-In . SVG Version: 6.00 Build 0)  -->
<!DOCTYPE svg PUBLIC "-//W3C//DTD SVG 1.1//EN" "http://www.w3.org/Graphics/SVG/1.1/DTD/svg11.dtd">
<svg version="1.1" id="Warstwa_1" xmlns="http://www.w3.org/2000/svg" xmlns:xlink="http://www.w3.org/1999/xlink" x="0px" y="0px"
	 width="23px" height="29.3px" viewBox="0 0 23 29.3" style="enable-background:new 0 0 23 29.3;" xml:space="preserve">
<g>
	<path style="fill:#fff;" d="M9.9,3.1c0.4,0,0.8-0.3,0.8-0.8c0-0.4,0.4-0.8,0.8-0.8s0.8,0.4,0.8,0.8c0,0.4,0.3,0.8,0.8,0.8
		s0.8-0.3,0.8-0.8c0-1.3-1-2.3-2.3-2.3S9.2,1,9.2,2.3C9.2,2.7,9.5,3.1,9.9,3.1z"/>
	<path style="fill:#fff;" d="M16,15.5c-0.3-0.2-0.8-0.1-1,0.2c-0.2,0.4-0.1,0.8,0.2,1c1.2,0.8,2.2,1.9,2.7,3.2
		c0.1,0.3,0.4,0.5,0.7,0.5c0.1,0,0.2,0,0.3-0.1c0.4-0.2,0.6-0.6,0.4-1C18.7,17.8,17.5,16.5,16,15.5z"/>
	<path style="fill:#fff;" d="M15.6,26.1c-1.1,1.1-2.6,1.7-4.1,1.7s-3-0.6-4.1-1.7c-0.3-0.3-0.8-0.3-1.1,0s-0.3,0.8,0,1.1
		c1.4,1.4,3.2,2.1,5.2,2.1c2,0,3.8-0.8,5.2-2.1c0.3-0.3,0.3-0.8,0-1.1S15.9,25.8,15.6,26.1z"/>
	<path style="fill:#fff;" d="M20.6,16.9c-1.4-2-2.8-4.1-2.8-7c0-3.5-2.8-6.3-6.3-6.3C8,3.6,5.2,6.4,5.2,9.8
		c0,2.7-1.4,4.8-2.7,6.9c-1.3,1.9-2.5,3.8-2.5,6c0,0.4,0.3,0.8,0.8,0.8h7.7c0.3,1.4,1.6,2.4,3,2.4c1.5,0,2.7-1,3-2.4h7.7
		c0.4,0,0.8-0.3,0.8-0.8C23,20.5,21.8,18.7,20.6,16.9z M11.5,24.3c-0.6,0-1.2-0.4-1.4-0.9h2.9C12.7,24,12.1,24.3,11.5,24.3z M1.6,22
		c0.2-1.5,1.1-2.9,2.2-4.4c1.4-2.1,3-4.5,3-7.7c0-2.6,2.1-4.8,4.8-4.8c2.6,0,4.8,2.1,4.8,4.8c0,3.4,1.6,5.8,3,7.9
		c1,1.5,1.9,2.8,2.1,4.2H1.6z"/>
</g>
</svg>
