<?xml version="1.0" encoding="utf-8"?>
<!-- Generator: Adobe Illustrator 16.0.0, SVG Export Plug-In . SVG Version: 6.00 Build 0)  -->
<!DOCTYPE svg PUBLIC "-//W3C//DTD SVG 1.1//EN" "http://www.w3.org/Graphics/SVG/1.1/DTD/svg11.dtd">
<svg version="1.1" id="Warstwa_1" xmlns="http://www.w3.org/2000/svg" xmlns:xlink="http://www.w3.org/1999/xlink" x="0px" y="0px"
	 width="13.7px" height="13.8px" viewBox="0 0 13.7 13.8" style="enable-background:new 0 0 13.7 13.8;" xml:space="preserve">
<g>
	<path style="fill:#010101;" d="M10.6,4.2c-0.3-0.3-0.7-0.3-1.1-0.1L6.6,6.7L4.9,5.9c-0.4-0.2-0.8,0-1,0.3c-0.2,0.4,0,0.8,0.3,1
		l2.2,1.1c0.1,0.1,0.2,0.1,0.3,0.1c0.2,0,0.4-0.1,0.5-0.2l3.3-2.9C10.8,5,10.9,4.5,10.6,4.2z"/>
	<path style="fill:#010101;" d="M6.8,0C3.1,0,0,3.1,0,6.9c0,3.9,3.1,6.9,7.1,6.9c0.4,0,0.8-0.3,0.8-0.8s-0.3-0.8-0.8-0.8
		c-3.1,0-5.6-2.4-5.6-5.4s2.3-5.4,5.3-5.4c3,0,5.4,2.4,5.4,5.4c0,2.1-1.3,4-3.2,4.9c-0.4,0.2-0.5,0.6-0.4,1s0.6,0.5,1,0.4
		c2.5-1.1,4.1-3.6,4.1-6.3C13.7,3.1,10.6,0,6.8,0z"/>
</g>
</svg>
