<?xml version="1.0" encoding="utf-8"?>
<!-- Generator: Adobe Illustrator 16.0.0, SVG Export Plug-In . SVG Version: 6.00 Build 0)  -->
<!DOCTYPE svg PUBLIC "-//W3C//DTD SVG 1.1//EN" "http://www.w3.org/Graphics/SVG/1.1/DTD/svg11.dtd">
<svg version="1.1" id="Warstwa_1" xmlns="http://www.w3.org/2000/svg" xmlns:xlink="http://www.w3.org/1999/xlink" x="0px" y="0px"
	 width="23.8px" height="22.9px" viewBox="0 0 23.8 22.9" style="enable-background:new 0 0 23.8 22.9;" xml:space="preserve">
<g>
	<path style="fill:#010101;" d="M5.1,0C2.3,0,0,2.3,0,5.1c0,2.8,2.3,5.1,5.1,5.1s5.1-2.3,5.1-5.1C10.3,2.3,8,0,5.1,0z M5.1,8.8
		c-2,0-3.6-1.6-3.6-3.6c0-2,1.6-3.6,3.6-3.6s3.6,1.6,3.6,3.6C8.8,7.1,7.1,8.8,5.1,8.8z"/>
	<path style="fill:#010101;" d="M18.6,10.3c2.8,0,5.1-2.3,5.1-5.1c0-2.8-2.3-5.1-5.1-5.1s-5.1,2.3-5.1,5.1
		C13.5,8,15.8,10.3,18.6,10.3z M18.6,1.5c2,0,3.6,1.6,3.6,3.6c0,2-1.6,3.6-3.6,3.6S15,7.1,15,5.1C15,3.1,16.6,1.5,18.6,1.5z"/>
	<path style="fill:#010101;" d="M5.1,12.7C2.3,12.7,0,15,0,17.8c0,2.8,2.3,5.1,5.1,5.1s5.1-2.3,5.1-5.1C10.3,15,8,12.7,5.1,12.7z
		 M5.1,21.4c-2,0-3.6-1.6-3.6-3.6c0-2,1.6-3.6,3.6-3.6s3.6,1.6,3.6,3.6C8.8,19.8,7.1,21.4,5.1,21.4z"/>
	<path style="fill:#010101;" d="M18.6,12.7c-2.8,0-5.1,2.3-5.1,5.1c0,2.8,2.3,5.1,5.1,5.1s5.1-2.3,5.1-5.1
		C23.8,15,21.5,12.7,18.6,12.7z M18.6,21.4c-2,0-3.6-1.6-3.6-3.6c0-2,1.6-3.6,3.6-3.6s3.6,1.6,3.6,3.6
		C22.3,19.8,20.6,21.4,18.6,21.4z"/>
</g>
</svg>
