<?xml version="1.0" encoding="utf-8"?>
<!-- Generator: Adobe Illustrator 16.0.0, SVG Export Plug-In . SVG Version: 6.00 Build 0)  -->
<!DOCTYPE svg PUBLIC "-//W3C//DTD SVG 1.1//EN" "http://www.w3.org/Graphics/SVG/1.1/DTD/svg11.dtd">
<svg version="1.1" id="Warstwa_1" xmlns="http://www.w3.org/2000/svg" xmlns:xlink="http://www.w3.org/1999/xlink" x="0px" y="0px"
	 width="15.3px" height="21.2px" viewBox="0 0 15.3 21.2" style="enable-background:new 0 0 15.3 21.2;" xml:space="preserve">
<g>
	<path style="fill:#010101;" d="M10.6,12.3H4.7c-0.4,0-0.8,0.3-0.8,0.8s0.3,0.8,0.8,0.8h5.9c0.4,0,0.8-0.3,0.8-0.8
		S11,12.3,10.6,12.3z"/>
	<path style="fill:#010101;" d="M8.6,15.3h-2c-0.4,0-0.8,0.3-0.8,0.8s0.3,0.8,0.8,0.8h2c0.4,0,0.8-0.3,0.8-0.8S9,15.3,8.6,15.3z"/>
	<path style="fill:#010101;" d="M13.4,8V6.2c0-3.5-2.7-6.2-6.1-6.2C3.9,0,1.3,2.7,1.3,6.2c0,0.4,0.3,0.8,0.8,0.8s0.8-0.3,0.8-0.8
		c0-2.6,2-4.7,4.6-4.7c2.6,0,4.6,2.1,4.6,4.7v1.7H2.4C1.1,7.9,0,9,0,10.3v9c0,0.6,0.2,1.9,2.4,1.9h10.5c2.2,0,2.4-1.3,2.4-1.9v-9
		C15.3,9.2,14.5,8.2,13.4,8z M13.8,19.3c0,0.2,0,0.4-0.9,0.4H2.4c-0.9,0-0.9-0.2-0.9-0.4v-9c0-0.5,0.4-0.9,0.9-0.9h10.5
		c0.5,0,0.9,0.4,0.9,0.9V19.3z"/>
</g>
</svg>
