<?xml version="1.0" encoding="utf-8"?>
<!-- Generator: Adobe Illustrator 16.0.0, SVG Export Plug-In . SVG Version: 6.00 Build 0)  -->
<!DOCTYPE svg PUBLIC "-//W3C//DTD SVG 1.1//EN" "http://www.w3.org/Graphics/SVG/1.1/DTD/svg11.dtd">
<svg version="1.1" id="Warstwa_1" xmlns="http://www.w3.org/2000/svg" xmlns:xlink="http://www.w3.org/1999/xlink" x="0px" y="0px"
	 width="11.3px" height="13.9px" viewBox="0 0 11.3 13.9" style="enable-background:new 0 0 11.3 13.9;" xml:space="preserve">
<g>
	<path style="fill:#010101;" d="M5.6,0C2.5,0,0,2.5,0,5.6c0,2.8,3,8.2,5.6,8.2c2.6,0,5.6-5.4,5.6-8.2C11.3,2.5,8.8,0,5.6,0z
		 M5.6,12.4c-1.3,0-4.1-4.2-4.1-6.7c0-2.3,1.9-4.1,4.1-4.1s4.1,1.9,4.1,4.1C9.8,8.2,7,12.4,5.6,12.4z"/>
	<path style="fill:#010101;" d="M5.6,3.2c-1.4,0-2.5,1.1-2.5,2.5c0,1.4,1.1,2.5,2.5,2.5c1.4,0,2.5-1.1,2.5-2.5
		C8.2,4.3,7,3.2,5.6,3.2z M5.6,6.7c-0.6,0-1-0.5-1-1c0-0.6,0.5-1,1-1c0.6,0,1,0.5,1,1C6.7,6.3,6.2,6.7,5.6,6.7z"/>
</g>
</svg>
