<?xml version="1.0" encoding="utf-8"?>
<!-- Generator: Adobe Illustrator 16.0.0, SVG Export Plug-In . SVG Version: 6.00 Build 0)  -->
<!DOCTYPE svg PUBLIC "-//W3C//DTD SVG 1.1//EN" "http://www.w3.org/Graphics/SVG/1.1/DTD/svg11.dtd">
<svg version="1.1" id="Warstwa_1" xmlns="http://www.w3.org/2000/svg" xmlns:xlink="http://www.w3.org/1999/xlink" x="0px" y="0px"
	 width="11.6px" height="15.8px" viewBox="0 0 11.6 15.8" style="enable-background:new 0 0 11.6 15.8;" xml:space="preserve">
<path style="fill:#010101;" d="M11.3,6.6L9.2,5.1l2.1-1.4c0.3-0.2,0.4-0.5,0.3-0.8s-0.4-0.5-0.7-0.5H3V0.8C3,0.3,2.6,0,2.2,0
	S1.5,0.3,1.5,0.8v10.5H0.8C0.3,11.3,0,11.6,0,12v3.1c0,0.4,0.3,0.8,0.8,0.8H3c0.4,0,0.8-0.3,0.8-0.8V12c0-0.4-0.3-0.8-0.8-0.8H3V8
	h7.9c0.3,0,0.6-0.2,0.7-0.5S11.6,6.8,11.3,6.6z M2.3,14.3H1.5v-1.6h0.8V14.3z M3,6.5V3.8h5.5L7.5,4.4c0,0-0.1,0.1-0.1,0.1
	c0,0-0.1,0-0.1,0.1c0,0,0,0,0,0c0,0,0,0.1-0.1,0.1c0,0,0,0.1,0,0.1c0,0,0,0.1,0,0.1c0,0,0,0.1,0,0.1c0,0,0,0.1,0,0.1
	c0,0.1,0,0.1,0.1,0.1c0,0,0,0,0,0c0,0,0,0,0.1,0c0,0,0.1,0.1,0.1,0.1l1.1,0.8H3z"/>
</svg>
