<?xml version="1.0" encoding="utf-8"?>
<!-- Generator: Adobe Illustrator 16.0.0, SVG Export Plug-In . SVG Version: 6.00 Build 0)  -->
<!DOCTYPE svg PUBLIC "-//W3C//DTD SVG 1.1//EN" "http://www.w3.org/Graphics/SVG/1.1/DTD/svg11.dtd">
<svg version="1.1" id="Warstwa_1" xmlns="http://www.w3.org/2000/svg" xmlns:xlink="http://www.w3.org/1999/xlink" x="0px" y="0px"
	 width="139.7px" height="14.8px" viewBox="0 0 139.7 14.8" style="enable-background:new 0 0 139.7 14.8;" xml:space="preserve">
<g>
	<g>
		<path style="fill:#010101;" d="M0,5.7h3.8c1.9,0,3.3,1.2,3.3,2.9s-1.4,2.9-3.3,2.9H1.3v3.1H0V5.7z M3.6,10.3
			c1.3,0,2.2-0.6,2.2-1.7S4.9,6.9,3.6,6.9H1.3v3.4H3.6z"/>
		<path style="fill:#010101;" d="M8.4,5.5h1.3v9.1H8.4V5.5z"/>
		<path style="fill:#010101;" d="M17.2,10.6v4.1h-1.3v-0.9c-0.5,0.7-1.4,1.1-2.2,1.1c-1.4,0-2.5-0.8-2.5-2.1c0-1.3,1.2-2.2,2.7-2.2
			c0.7,0,1.4,0.1,2,0.4v-0.2c0-0.8-0.4-1.7-1.7-1.7c-0.7,0-1.3,0.3-1.9,0.6l-0.5-0.9c1-0.5,1.8-0.7,2.5-0.7
			C16.2,7.8,17.2,8.9,17.2,10.6z M15.9,12.5v-0.9c-0.5-0.2-1.2-0.3-1.8-0.3c-0.9,0-1.7,0.5-1.7,1.2c0,0.7,0.6,1.2,1.5,1.2
			C14.8,13.8,15.7,13.4,15.9,12.5z"/>
		<path style="fill:#010101;" d="M22.6,14.3c-0.4,0.3-0.9,0.5-1.3,0.5c-1,0-1.8-0.8-1.8-1.8V9h-1V7.9h1V6.1h1.3v1.8h1.6V9h-1.6v3.9
			c0,0.5,0.3,0.8,0.7,0.8c0.3,0,0.5-0.1,0.7-0.2L22.6,14.3z"/>
		<path style="fill:#010101;" d="M25.7,7.9h1.6V9h-1.6v5.6h-1.3V9h-1V7.9h1V7.1c0-1.1,0.7-1.8,1.8-1.8c0.5,0,1,0.2,1.3,0.5l-0.5,0.9
			c-0.1-0.1-0.4-0.2-0.7-0.2c-0.4,0-0.7,0.3-0.7,0.8V7.9z"/>
		<path style="fill:#010101;" d="M28.3,11.3c0-1.9,1.6-3.5,3.5-3.5c1.9,0,3.5,1.6,3.5,3.5c0,1.9-1.6,3.5-3.5,3.5
			C29.9,14.8,28.3,13.2,28.3,11.3z M34.1,11.3c0-1.3-1-2.4-2.2-2.4c-1.2,0-2.3,1.1-2.3,2.4c0,1.3,1,2.4,2.3,2.4
			C33,13.7,34.1,12.6,34.1,11.3z"/>
		<path style="fill:#010101;" d="M40.7,7.8v1.1c-1.4,0-2.4,0.8-2.5,1.9v3.8h-1.3V7.9h1.3v1.3C38.6,8.3,39.5,7.8,40.7,7.8z"/>
		<path style="fill:#010101;" d="M51.9,10.4v4.3h-1.3v-4.1c0-1-0.6-1.7-1.4-1.7c-1,0-1.6,0.6-1.6,1.6v4.2h-1.3v-4.1
			c0-1-0.6-1.7-1.4-1.7c-1,0-1.6,0.6-1.6,1.6v4.2H42V7.9h1.3v0.9c0.3-0.7,1-1.1,1.9-1.1c1,0,1.8,0.5,2.2,1.4
			c0.3-0.8,1.2-1.4,2.2-1.4C50.9,7.8,51.9,8.8,51.9,10.4z"/>
		<path style="fill:#010101;" d="M59.4,10.6v4.1h-1.3v-0.9c-0.5,0.7-1.4,1.1-2.2,1.1c-1.4,0-2.5-0.8-2.5-2.1c0-1.3,1.2-2.2,2.7-2.2
			c0.7,0,1.4,0.1,2,0.4v-0.2c0-0.8-0.4-1.7-1.7-1.7c-0.7,0-1.3,0.3-1.9,0.6L54,8.4c1-0.5,1.8-0.7,2.5-0.7
			C58.4,7.8,59.4,8.9,59.4,10.6z M58.1,12.5v-0.9c-0.5-0.2-1.2-0.3-1.8-0.3c-0.9,0-1.7,0.5-1.7,1.2c0,0.7,0.6,1.2,1.5,1.2
			C57,13.8,57.9,13.4,58.1,12.5z"/>
	</g>
	<path style="fill:#010101;" d="M68,12.1c0-1.1,0.9-2.1,2.2-2.1c1.2,0,2.1,1,2.1,2.1c0,1.2-0.9,2.2-2.1,2.2
		C68.9,14.3,68,13.3,68,12.1z"/>
	<rect x="74.5" y="0.3" style="fill:#010101;" width="4" height="14"/>
	<path style="fill:#010101;" d="M90.6,0v3.3c-2.9,0-4.8,1.7-4.8,4.3v6.7h-3.9v-14h3.9v2.6C86.7,1.1,88.5,0,90.6,0z"/>
	<path style="fill:#010101;" d="M91.8,7.3c0-4,3.5-7.3,7.7-7.3c4.1,0,7.6,3.3,7.6,7.3c0,4-3.5,7.3-7.6,7.3
		C95.3,14.6,91.8,11.3,91.8,7.3z M103.3,7.3c0-2.2-1.8-4-3.8-4c-2.1,0-3.9,1.8-3.9,4s1.8,4,3.9,4C101.5,11.3,103.3,9.5,103.3,7.3z"
		/>
	<path style="fill:#010101;" d="M123,5.4v8.9h-3.8V6.2c0-1.7-1.1-2.9-2.7-2.9c-1.6,0-2.9,1.2-2.9,2.7l0-0.1v8.4h-4v-14h4v1.8
		c0.8-1.3,2.4-2.1,4.2-2.1C120.8,0,123,2.2,123,5.4z"/>
	<path style="fill:#010101;" d="M136.2,9.9l2.5,2.6c-1.2,1.3-3.7,2.2-5.7,2.2c-4.2,0-7.4-3.1-7.4-7.4c0-4.2,3.1-7.3,7.2-7.3
		c4.4,0,7,3.3,7,8.6h-10.1c0.5,1.5,1.7,2.5,3.3,2.5C134,11.1,135.4,10.6,136.2,9.9z M129.7,5.8h6.3c-0.4-1.4-1.4-2.3-3-2.3
		C131.4,3.5,130.2,4.4,129.7,5.8z"/>
</g>
</svg>
