<?xml version="1.0" encoding="utf-8"?>
<!-- Generator: Adobe Illustrator 16.0.0, SVG Export Plug-In . SVG Version: 6.00 Build 0)  -->
<!DOCTYPE svg PUBLIC "-//W3C//DTD SVG 1.1//EN" "http://www.w3.org/Graphics/SVG/1.1/DTD/svg11.dtd">
<svg version="1.1" id="Warstwa_1" xmlns="http://www.w3.org/2000/svg" xmlns:xlink="http://www.w3.org/1999/xlink" x="0px" y="0px"
	 width="27.7px" height="27.7px" viewBox="0 0 27.7 27.7" style="enable-background:new 0 0 27.7 27.7;" xml:space="preserve">
<g>
	<g>
		<path style="fill:#010101;" d="M13.8,13c-2.5,0-4.5-2-4.5-4.4c0-2.5,2-4.4,4.5-4.4c2.5,0,4.4,2,4.4,4.4C18.3,11,16.3,13,13.8,13z
			 M13.8,5.6c-1.6,0-3,1.3-3,2.9c0,1.6,1.3,2.9,3,2.9c1.6,0,2.9-1.3,2.9-2.9C16.8,6.9,15.5,5.6,13.8,5.6z"/>
		<path style="fill:#010101;" d="M21.6,22.4H9.9c-0.4,0-0.8-0.3-0.8-0.8s0.3-0.8,0.8-0.8h10.9c-0.4-3.5-3.3-6.2-6.9-6.2
			c-2.5,0-4.8,1.3-6,3.5c-0.6,1.1-0.9,2.3-0.9,3.5c0,0.4-0.3,0.8-0.8,0.8s-0.8-0.3-0.8-0.8c0-1.5,0.4-3,1.1-4.2
			c1.5-2.6,4.3-4.2,7.3-4.2c4.7,0,8.5,3.8,8.5,8.5C22.3,22.1,22,22.4,21.6,22.4z"/>
	</g>
	<path style="fill:#010101;" d="M13.8,27.7C6.2,27.7,0,21.5,0,13.8C0,6.2,6.2,0,13.8,0c7.6,0,13.8,6.2,13.8,13.8
		c0,2.3-0.6,4.6-1.7,6.6c-0.2,0.4-0.7,0.5-1,0.3c-0.4-0.2-0.5-0.7-0.3-1c1-1.8,1.5-3.8,1.5-5.9c0-6.8-5.5-12.3-12.3-12.3
		C7,1.5,1.5,7,1.5,13.8c0,6.8,5.5,12.3,12.3,12.3c1.5,0,3-0.3,4.4-0.8c0.4-0.1,0.8,0,1,0.4c0.1,0.4,0,0.8-0.4,1
		C17.2,27.4,15.6,27.7,13.8,27.7z"/>
</g>
</svg>
