<?xml version="1.0" encoding="utf-8"?>
<!-- Generator: Adobe Illustrator 16.0.0, SVG Export Plug-In . SVG Version: 6.00 Build 0)  -->
<!DOCTYPE svg PUBLIC "-//W3C//DTD SVG 1.1//EN" "http://www.w3.org/Graphics/SVG/1.1/DTD/svg11.dtd">
<svg version="1.1" id="Warstwa_1" xmlns="http://www.w3.org/2000/svg" xmlns:xlink="http://www.w3.org/1999/xlink" x="0px" y="0px"
	 width="15.3px" height="15.3px" viewBox="0 0 15.3 15.3" style="enable-background:new 0 0 15.3 15.3;" xml:space="preserve">
<g>
	<path style="fill:#010101;" d="M7.9,15.3c-1,0-1.8-0.7-2-1.6c-0.4-0.1-0.7-0.2-1-0.4c-0.8,0.6-2,0.5-2.7-0.2
		c-0.4-0.4-0.6-0.9-0.6-1.5c0-0.4,0.1-0.8,0.3-1.1c-0.1-0.3-0.2-0.5-0.3-0.8C0.7,9.5,0,8.6,0,7.6c0-1,0.7-1.8,1.7-2
		C1.7,5.4,1.9,5.1,2,4.8C1.5,4,1.6,2.9,2.3,2.2C3,1.5,4.1,1.4,4.9,2c0.3-0.1,0.6-0.3,1-0.4c0.2-0.9,1-1.6,2-1.6c1,0,1.9,0.7,2,1.7
		c0.2,0.1,0.4,0.1,0.6,0.2c0.8-0.5,1.9-0.4,2.5,0.3c0.4,0.4,0.6,0.9,0.6,1.5c0,0.4-0.1,0.8-0.3,1.1c0.1,0.3,0.2,0.5,0.3,0.8
		c0.9,0.2,1.6,1,1.6,2c0,1.1-0.9,2.1-2.1,2.1c-0.4,0-0.8-0.3-0.8-0.8s0.3-0.8,0.8-0.8c0.3,0,0.6-0.3,0.6-0.6c0-0.3-0.3-0.6-0.6-0.6
		h-0.2c-0.3,0-0.6-0.2-0.7-0.6C12.2,6,12,5.6,11.8,5.1c-0.2-0.3-0.1-0.7,0.1-0.9L12,4.1c0.1-0.1,0.2-0.3,0.2-0.4
		c0-0.2-0.1-0.3-0.2-0.4c-0.2-0.2-0.4-0.2-0.6-0.1c-0.1,0.1-0.2,0.2-0.3,0.3c-0.2,0.2-0.6,0.2-0.8,0C10,3.3,9.5,3.2,9.2,3L8.9,2.9
		C8.6,2.8,8.5,2.5,8.5,2.2V2.1c0-0.3-0.3-0.6-0.6-0.6c-0.3,0-0.6,0.3-0.6,0.6v0.2c0,0.4-0.2,0.7-0.6,0.7C6.2,3.1,5.7,3.3,5.3,3.5
		C5,3.7,4.7,3.7,4.5,3.5L4.3,3.4c0,0-0.1-0.1-0.1-0.1c-0.2-0.2-0.6-0.2-0.8,0c-0.2,0.2-0.2,0.6,0,0.8l0.1,0.1
		c0.2,0.2,0.3,0.6,0.1,0.9C3.3,5.6,3.1,6,3,6.5C2.9,6.8,2.6,7.1,2.2,7.1H2.1c-0.3,0-0.6,0.3-0.6,0.6c0,0.3,0.3,0.6,0.6,0.6h0.2
		c0.3,0,0.6,0.2,0.7,0.6c0.1,0.5,0.3,0.9,0.6,1.4c0.2,0.3,0.1,0.7-0.1,0.9l-0.1,0.1c-0.1,0.1-0.2,0.2-0.2,0.4s0.1,0.3,0.2,0.4
		c0.2,0.2,0.6,0.2,0.8,0c0.1-0.1,0.1-0.1,0.2-0.2l0.2-0.1c0.2-0.1,0.5-0.1,0.7,0c0.4,0.3,0.9,0.4,1.5,0.6c0.3,0.1,0.6,0.4,0.6,0.7
		v0.2c0,0.3,0.3,0.6,0.6,0.6c0.3,0,0.6-0.3,0.6-0.6v-0.2c0-0.3,0.2-0.6,0.5-0.7l0.3-0.1c0.3-0.1,0.8-0.3,1.1-0.5
		c0.2-0.1,0.4-0.1,0.6-0.1c0.2,0.1,0.3,0.2,0.4,0.4c0.2,0.1,0.5,0.1,0.7-0.1c0.1-0.1,0.2-0.2,0.2-0.4c0-0.2-0.1-0.3-0.2-0.4
		c-0.3-0.3-0.3-0.8,0-1.1c0.3-0.3,0.8-0.3,1.1,0c0.4,0.4,0.6,0.9,0.6,1.5c0,0.5-0.2,1.1-0.6,1.4c-0.7,0.7-1.8,0.8-2.5,0.3
		c-0.2,0.1-0.4,0.2-0.6,0.3C9.8,14.5,8.9,15.3,7.9,15.3z"/>
	<path style="fill:#010101;" d="M7.6,11c-0.4,0-0.8-0.3-0.8-0.8s0.3-0.8,0.8-0.8c0.9,0,1.5-0.7,1.5-1.5S8.5,6.4,7.6,6.4
		S6.1,7.1,6.1,8c0,0.4-0.3,0.8-0.8,0.8S4.6,8.4,4.6,8c0-1.7,1.4-3,3-3s3,1.4,3,3S9.3,11,7.6,11z"/>
</g>
</svg>
