<?xml version="1.0" encoding="utf-8"?>
<!-- Generator: Adobe Illustrator 16.0.0, SVG Export Plug-In . SVG Version: 6.00 Build 0)  -->
<!DOCTYPE svg PUBLIC "-//W3C//DTD SVG 1.1//EN" "http://www.w3.org/Graphics/SVG/1.1/DTD/svg11.dtd">
<svg version="1.1" id="Warstwa_1" xmlns="http://www.w3.org/2000/svg" xmlns:xlink="http://www.w3.org/1999/xlink" x="0px" y="0px"
	 width="13.6px" height="13.6px" viewBox="0 0 13.6 13.6" style="enable-background:new 0 0 13.6 13.6;" xml:space="preserve">
<g>
	<g>
		<path style="fill:#010101;" d="M9.3,10.1C9.1,10.1,9,10,8.8,9.9l-5-5c-0.3-0.3-0.3-0.8,0-1.1s0.8-0.3,1.1,0l5,5
			c0.3,0.3,0.3,0.8,0,1.1C9.7,10,9.5,10.1,9.3,10.1z"/>
		<path style="fill:#010101;" d="M4.3,10.1c-0.2,0-0.4-0.1-0.5-0.2c-0.3-0.3-0.3-0.8,0-1.1l5-5c0.3-0.3,0.8-0.3,1.1,0s0.3,0.8,0,1.1
			l-5,5C4.7,10,4.5,10.1,4.3,10.1z"/>
	</g>
	<path style="fill:#010101;" d="M6.8,13.6C3.1,13.6,0,10.6,0,6.8S3.1,0,6.8,0s6.8,3.1,6.8,6.8S10.6,13.6,6.8,13.6z M6.8,1.5
		c-2.9,0-5.3,2.4-5.3,5.3s2.4,5.3,5.3,5.3s5.3-2.4,5.3-5.3S9.8,1.5,6.8,1.5z"/>
</g>
</svg>
