<?xml version="1.0" encoding="utf-8"?>
<!-- Generator: Adobe Illustrator 16.0.0, SVG Export Plug-In . SVG Version: 6.00 Build 0)  -->
<!DOCTYPE svg PUBLIC "-//W3C//DTD SVG 1.1//EN" "http://www.w3.org/Graphics/SVG/1.1/DTD/svg11.dtd">
<svg version="1.1" id="Warstwa_1" xmlns="http://www.w3.org/2000/svg" xmlns:xlink="http://www.w3.org/1999/xlink" x="0px" y="0px"
	 width="155.7px" height="140.8px" viewBox="0 0 155.7 140.8" style="enable-background:new 0 0 155.7 140.8;" xml:space="preserve"
	>
<g>
	<path d="M41.1,32.1c-0.6,0-1-0.4-1-1C40.1,13.9,54,0,71.2,0c13.7,0,26,9.2,29.8,22.4c0.2,0.5-0.2,1.1-0.7,1.2
		c-0.5,0.2-1.1-0.2-1.2-0.7C95.5,10.6,84,2,71.2,2c-16,0-29.1,13-29.1,29.1C42.1,31.6,41.6,32.1,41.1,32.1z"/>
	<path d="M81.2,110.4c-0.6,0-1-0.4-1-1v-5c0-6,4.9-10.9,10.9-10.9h36c14,0,25.7-10.6,26.6-24c0.5-7.2-2-14.1-6.9-19.3
		c-4.9-5.2-11.6-8.1-18.8-8.1c-0.6,0-1-0.4-1-1c0-10.5-8.5-19-19-19c-2.6,0-5.1,0.5-7.5,1.5c-0.5,0.2-1.1,0-1.3-0.5
		c-0.2-0.5,0-1.1,0.5-1.3c2.6-1.1,5.4-1.7,8.3-1.7c11.3,0,20.5,8.9,21,20.1c7.3,0.3,14.3,3.4,19.3,8.7c5.3,5.7,7.9,13,7.4,20.8
		c-0.9,14.5-13.5,25.9-28.6,25.9h-36c-4.9,0-8.9,4-8.9,8.9v5C82.2,110,81.7,110.4,81.2,110.4z"/>
	<path d="M37.8,115.6c-0.6,0-1-0.4-1-1v-10.2c0-4.9-4-8.9-8.9-8.9h-3.5C10.9,95.6,0,84.6,0,71.2c0-0.6,0.4-1,1-1c0.6,0,1,0.4,1,1
		c0,12.3,10,22.4,22.4,22.4h3.5c6,0,10.9,4.9,10.9,10.9v10.2C38.8,115.2,38.3,115.6,37.8,115.6z"/>
	<path d="M61.4,75.6c-0.2,0-0.4-0.1-0.6-0.2c-0.4-0.3-0.5-1-0.1-1.4c1-1.3,2.2-2.4,3.5-3.5c5.1-4.2,11.5-6.1,18.1-5.5
		c6.6,0.6,12.5,3.8,16.7,8.9c0.4,0.4,0.3,1.1-0.1,1.4c-0.4,0.4-1.1,0.3-1.4-0.1c-3.9-4.7-9.3-7.6-15.3-8.2c-6-0.6-11.9,1.2-16.6,5.1
		c-1.2,1-2.3,2.1-3.2,3.2C61.9,75.5,61.7,75.6,61.4,75.6z"/>
	<path d="M17.7,52.1c-0.6,0-1-0.4-1-1c0-13.4,10.9-24.4,24.4-24.4c0.6,0,1,0.4,1,1s-0.4,1-1,1c-12.3,0-22.4,10-22.4,22.4
		C18.7,51.7,18.3,52.1,17.7,52.1z"/>
	<path d="M57.8,113.6c-0.6,0-1-0.4-1-1v-10c0-0.6,0.4-1,1-1s1,0.4,1,1v10C58.8,113.1,58.4,113.6,57.8,113.6z"/>
	<path d="M111.1,132.3c-0.6,0-1-0.4-1-1v-25.8c0-0.6,0.4-1,1-1c0.6,0,1,0.4,1,1v25.8C112.1,131.8,111.7,132.3,111.1,132.3z"/>
	<path d="M81.2,127.3c-0.6,0-1-0.4-1-1v-5.2c0-0.6,0.4-1,1-1s1,0.4,1,1v5.2C82.2,126.8,81.7,127.3,81.2,127.3z"/>
	<path d="M57.8,140.8c-0.6,0-1-0.4-1-1v-13.8c0-0.6,0.4-1,1-1s1,0.4,1,1v13.8C58.8,140.3,58.4,140.8,57.8,140.8z"/>
	<path d="M98.1,140.8c-0.6,0-1-0.4-1-1v-11.3c0-0.6,0.4-1,1-1s1,0.4,1,1v11.3C99.1,140.3,98.6,140.8,98.1,140.8z"/>
	<path d="M52.8,60.4c-3,0-5.5-2.5-5.5-5.5c0-0.6,0.4-1,1-1c0.6,0,1,0.4,1,1c0,1.9,1.6,3.5,3.5,3.5s3.5-1.6,3.5-3.5c0-0.6,0.4-1,1-1
		c0.6,0,1,0.4,1,1C58.3,58,55.8,60.4,52.8,60.4z"/>
	<path d="M52.9,55.9H41.6c-0.6,0-1-0.4-1-1s0.4-1,1-1h11.3c0.6,0,1,0.4,1,1S53.5,55.9,52.9,55.9z"/>
	<path d="M102.1,60.4c-3,0-5.5-2.5-5.5-5.5c0-0.6,0.4-1,1-1s1,0.4,1,1c0,1.9,1.6,3.5,3.5,3.5s3.5-1.6,3.5-3.5c0-0.6,0.4-1,1-1
		s1,0.4,1,1C107.6,58,105.1,60.4,102.1,60.4z"/>
	<path d="M102.3,55.9H90.9c-0.6,0-1-0.4-1-1s0.4-1,1-1h11.3c0.6,0,1,0.4,1,1S102.8,55.9,102.3,55.9z"/>
</g>
</svg>
