<?xml version="1.0" encoding="utf-8"?>
<!-- Generator: Adobe Illustrator 16.0.0, SVG Export Plug-In . SVG Version: 6.00 Build 0)  -->
<!DOCTYPE svg PUBLIC "-//W3C//DTD SVG 1.1//EN" "http://www.w3.org/Graphics/SVG/1.1/DTD/svg11.dtd">
<svg version="1.1" id="Warstwa_1" xmlns="http://www.w3.org/2000/svg" xmlns:xlink="http://www.w3.org/1999/xlink" x="0px" y="0px"
	 width="14.2px" height="13.3px" viewBox="0 0 14.2 13.3" style="enable-background:new 0 0 14.2 13.3;" xml:space="preserve">
<path style="fill:#010101;" d="M13.8,5.9l-1.7-1.5c0,0,0,0,0,0V1.8c0-0.4-0.3-0.8-0.8-0.8s-0.8,0.3-0.8,0.8V3L7.6,0.2
	c-0.3-0.3-0.7-0.3-1,0L0.2,6C0,6.2-0.1,6.5,0.1,6.8c0.1,0.3,0.4,0.5,0.7,0.5h1.5l0.5,5.4c0,0.4,0.4,0.7,0.7,0.7h7.1
	c0.4,0,0.7-0.3,0.7-0.7l0.5-5.4h1.5c0,0,0,0,0,0c0.4,0,0.8-0.3,0.8-0.8C14.2,6.2,14.1,6,13.8,5.9z M7.1,1.8l4.4,4h-0.3H3H2.7
	L7.1,1.8z M10,11.8H4.2L3.8,7.3h6.6L10,11.8z"/>
</svg>
