<?xml version="1.0" encoding="utf-8"?>
<!-- Generator: Adobe Illustrator 16.0.0, SVG Export Plug-In . SVG Version: 6.00 Build 0)  -->
<!DOCTYPE svg PUBLIC "-//W3C//DTD SVG 1.1//EN" "http://www.w3.org/Graphics/SVG/1.1/DTD/svg11.dtd">
<svg version="1.1" id="Warstwa_1" xmlns="http://www.w3.org/2000/svg" xmlns:xlink="http://www.w3.org/1999/xlink" x="0px" y="0px"
	 width="17.7px" height="27.4px" viewBox="0 0 17.7 27.4" style="enable-background:new 0 0 17.7 27.4;" xml:space="preserve">
<g>
	<path style="fill:#010101;" d="M6.3,8.2c0.2,0,0.4-0.1,0.5-0.2l2.2-2.2c0.3-0.3,0.3-0.8,0-1.1C8.8,4.4,8.3,4.4,8,4.7L5.8,6.9
		C5.5,7.2,5.5,7.7,5.8,8C6,8.1,6.2,8.2,6.3,8.2z"/>
	<path style="fill:#010101;" d="M7.2,10.6c0.1,0.1,0.3,0.2,0.5,0.2s0.4-0.1,0.5-0.2l4-4c0.3-0.3,0.3-0.8,0-1.1s-0.8-0.3-1.1,0l-4,4
		C6.9,9.8,6.9,10.3,7.2,10.6z"/>
	<circle style="fill:#010101;" cx="8.9" cy="24.1" r="1.3"/>
	<path style="fill:#010101;" d="M14.8,0h-12C1.3,0,0,1.3,0,2.9v21.7c0,1.6,1.3,2.9,2.8,2.9h12c1.6,0,2.9-1.3,2.9-2.9V2.9
		C17.7,1.3,16.4,0,14.8,0z M16.2,24.6c0,0.7-0.6,1.4-1.4,1.4h-12c-0.7,0-1.3-0.6-1.3-1.4V2.9c0-0.7,0.6-1.4,1.3-1.4h12
		c0.7,0,1.4,0.6,1.4,1.4V24.6z"/>
	<path style="fill:#010101;" d="M14.1,10.8c-0.4,0-0.8,0.3-0.8,0.8v9.4H3.8c-0.4,0-0.8,0.3-0.8,0.8s0.3,0.8,0.8,0.8h10.3
		c0.4,0,0.8-0.3,0.8-0.8V11.5C14.8,11.1,14.5,10.8,14.1,10.8z"/>
</g>
</svg>
