<?xml version="1.0" encoding="utf-8"?>
<!-- Generator: Adobe Illustrator 16.0.0, SVG Export Plug-In . SVG Version: 6.00 Build 0)  -->
<!DOCTYPE svg PUBLIC "-//W3C//DTD SVG 1.1//EN" "http://www.w3.org/Graphics/SVG/1.1/DTD/svg11.dtd">
<svg version="1.1" id="Warstwa_1" xmlns="http://www.w3.org/2000/svg" xmlns:xlink="http://www.w3.org/1999/xlink" x="0px" y="0px"
	 width="30.4px" height="26.7px" viewBox="0 0 30.4 26.7" style="enable-background:new 0 0 30.4 26.7;" xml:space="preserve">
<path style="fill:#010101;" d="M6.2,18.6c0.1,0,0.2,0,0.3-0.1c0.1,0,0.2,0.1,0.3,0.1h19.9c0.3,0,0.6-0.2,0.7-0.5l3-10.2
	c0.1-0.4-0.1-0.8-0.5-0.9C29.5,6.7,29.1,7,29,7.4l-0.4,1.5L5.9,5.5L5.6,2c0-0.3-0.2-0.6-0.5-0.6L1,0C0.6-0.1,0.2,0.1,0,0.5
	c-0.1,0.4,0.1,0.8,0.5,0.9l3.6,1.2l1.3,14.5c-1.1,0.3-2,1.4-2,2.7c0,1.2,0.7,2.2,1.9,2.6c0.2,0.1,0.4,0.1,0.5,0.1
	c-0.2,0.4-0.4,0.8-0.4,1.3c0,1.5,1.3,2.8,2.8,2.8c1.5,0,2.8-1.3,2.8-2.8c0-0.5-0.1-0.9-0.3-1.3h9.4c-0.2,0.4-0.3,0.8-0.3,1.3
	c0,1.5,1.3,2.8,2.8,2.8c1.5,0,2.8-1.3,2.8-2.8c0-0.5-0.1-0.9-0.3-1.3h2.2c0.4,0,0.8-0.3,0.8-0.8s-0.3-0.8-0.8-0.8H6.8
	c-0.1,0-0.2,0-0.3,0.1c-0.1,0-0.2-0.1-0.3-0.1c-0.1,0-0.3,0-0.4-0.1c-0.5-0.2-0.9-0.7-0.9-1.2C4.9,19.1,5.5,18.6,6.2,18.6z
	 M26.1,17.1H6.9l-0.6-7l21,2.8L26.1,17.1z M28.1,10.3l-0.3,1.2c0,0,0,0,0,0L6.4,8.6c-0.1,0-0.2,0-0.3,0L6,7L28.1,10.3z M9.6,23.9
	c0,0.7-0.6,1.3-1.3,1.3c-0.7,0-1.3-0.6-1.3-1.3c0-0.7,0.6-1.3,1.3-1.3C9,22.7,9.6,23.2,9.6,23.9z M23.9,23.9c0,0.7-0.6,1.3-1.3,1.3
	c-0.7,0-1.3-0.6-1.3-1.3c0-0.7,0.6-1.3,1.3-1.3C23.3,22.7,23.9,23.2,23.9,23.9z"/>
</svg>
