<?xml version="1.0" encoding="utf-8"?>
<!-- Generator: Adobe Illustrator 16.0.0, SVG Export Plug-In . SVG Version: 6.00 Build 0)  -->
<!DOCTYPE svg PUBLIC "-//W3C//DTD SVG 1.1//EN" "http://www.w3.org/Graphics/SVG/1.1/DTD/svg11.dtd">
<svg version="1.1" id="Warstwa_1" xmlns="http://www.w3.org/2000/svg" xmlns:xlink="http://www.w3.org/1999/xlink" x="0px" y="0px"
	 width="123px" height="107.6px" viewBox="0 0 123 107.6" style="enable-background:new 0 0 123 107.6;" xml:space="preserve">
<g>
	<path d="M23.8,90.5c-1.1,0-2.2-0.2-3.2-0.5c-3.8-1.4-6.4-5-6.4-9c0-4.9,3.7-9,8.5-9.5l-5.6-64L0.7,1.9C0.2,1.8-0.1,1.2,0.1,0.7
		c0.2-0.5,0.7-0.8,1.3-0.6l17.1,5.7c0.4,0.1,0.6,0.5,0.7,0.9l5.7,65.6c0,0.3-0.1,0.6-0.3,0.8c-0.2,0.2-0.5,0.3-0.7,0.3
		c-4.2,0-7.6,3.4-7.6,7.6c0,3.2,2,6.1,5,7.1c0.8,0.3,1.7,0.4,2.5,0.4c0.6,0,1,0.4,1,1S24.4,90.5,23.8,90.5z"/>
	<path d="M111.7,90.5H41.7c-0.6,0-1-0.4-1-1s0.4-1,1-1h70.1c0.6,0,1,0.4,1,1S112.3,90.5,111.7,90.5z"/>
	<path d="M92.3,107.6c-5.3,0-9.6-4.3-9.6-9.6c0-5.3,4.3-9.6,9.6-9.6c5.3,0,9.6,4.3,9.6,9.6C101.9,103.3,97.6,107.6,92.3,107.6z
		 M92.3,90.5c-4.2,0-7.6,3.4-7.6,7.6c0,4.2,3.4,7.6,7.6,7.6c4.2,0,7.6-3.4,7.6-7.6C99.9,93.9,96.5,90.5,92.3,90.5z"/>
	<path d="M32.4,107.6c-5.3,0-9.6-4.3-9.6-9.6c0-5.3,4.3-9.6,9.6-9.6c5.3,0,9.6,4.3,9.6,9.6C41.9,103.3,37.7,107.6,32.4,107.6z
		 M32.4,90.5c-4.2,0-7.6,3.4-7.6,7.6c0,4.2,3.4,7.6,7.6,7.6c4.2,0,7.6-3.4,7.6-7.6C39.9,93.9,36.6,90.5,32.4,90.5z"/>
	<path d="M109.4,73.3H35.5c-0.6,0-1-0.4-1-1s0.4-1,1-1h73.2L121,29.3c0.2-0.5,0.7-0.8,1.2-0.7c0.5,0.2,0.8,0.7,0.7,1.2l-12.6,42.8
		C110.3,73,109.9,73.3,109.4,73.3z"/>
	<path d="M118,39.1c0,0-0.1,0-0.1,0L40.9,27.8c-0.5-0.1-0.9-0.6-0.8-1.1c0.1-0.5,0.6-0.9,1.1-0.8l76.9,11.3c0.5,0.1,0.9,0.6,0.8,1.1
		C118.9,38.7,118.5,39.1,118,39.1z"/>
	<path d="M58.7,63.3c-0.2,0-0.4-0.1-0.6-0.2c-0.4-0.3-0.5-1-0.1-1.4c0.5-0.6,1.1-1.2,1.7-1.8c2.5-2.1,5.7-3.1,9-2.8
		c3.3,0.3,6.2,1.9,8.3,4.4c0.4,0.4,0.3,1.1-0.1,1.4c-0.4,0.4-1.1,0.3-1.4-0.1c-1.8-2.1-4.2-3.5-7-3.7c-2.7-0.3-5.4,0.6-7.6,2.3
		c-0.5,0.4-1,0.9-1.5,1.5C59.3,63.2,59,63.3,58.7,63.3z"/>
	<path d="M44.4,49.7c-0.4,0-0.8-0.3-0.9-0.7c-0.2-0.5,0.1-1.1,0.6-1.3l10.4-3.5c0.5-0.2,1.1,0.1,1.3,0.6c0.2,0.5-0.1,1.1-0.6,1.3
		l-10.4,3.5C44.6,49.7,44.5,49.7,44.4,49.7z"/>
	<path d="M32.9,26.4c-0.1,0-0.1,0-0.2,0L24.9,25c-0.5-0.1-0.9-0.6-0.8-1.2c0.1-0.5,0.6-0.9,1.2-0.8l7.8,1.4c0.5,0.1,0.9,0.6,0.8,1.2
		C33.8,26.1,33.4,26.4,32.9,26.4z"/>
	<path d="M52.3,52.6c-1,0-1.8-0.8-1.8-1.8s0.8-1.8,1.8-1.8s1.8,0.8,1.8,1.8S53.3,52.6,52.3,52.6z M52.3,50.6c-0.1,0-0.2,0.1-0.2,0.2
		c0,0.2,0.4,0.2,0.4,0C52.4,50.7,52.4,50.6,52.3,50.6z"/>
	<path d="M87.9,49.7c-0.1,0-0.2,0-0.3-0.1l-10.4-3.5c-0.5-0.2-0.8-0.7-0.6-1.3c0.2-0.5,0.7-0.8,1.3-0.6l10.4,3.5
		c0.5,0.2,0.8,0.7,0.6,1.3C88.7,49.5,88.4,49.7,87.9,49.7z"/>
	<path d="M80.1,52.6c-1,0-1.8-0.8-1.8-1.8s0.8-1.8,1.8-1.8s1.8,0.8,1.8,1.8S81.1,52.6,80.1,52.6z M80.1,50.6c-0.1,0-0.2,0.1-0.2,0.2
		c0,0.2,0.4,0.2,0.4,0C80.3,50.7,80.2,50.6,80.1,50.6z"/>
</g>
</svg>
