<svg version="1.1" id="Warstwa_1" xmlns="http://www.w3.org/2000/svg" xmlns:xlink="http://www.w3.org/1999/xlink" x="0px" y="0px"
	 width="34.7px" height="33.3px" viewBox="0 0 34.7 33.3" style="enable-background:new 0 0 34.7 33.3;" xml:space="preserve">
<style type="text/css">
<![CDATA[
	.st0{fill:none;stroke:#009139;stroke-width:3;stroke-miterlimit:10;}
	.st1{fill:none;stroke:#5AB251;stroke-width:3;stroke-miterlimit:10;}
	.st2{fill:#5AB251;}
	.st3{fill:#009139;}
]]>
</style>
<path class="st3" d="M2.2,33.3c-1.1,0-1.6-0.6-1.9-1.1c-0.3-0.6-0.4-1.5-0.2-2.3c0.2-1,0.8-1.9,1.7-2.8c1.1-1.1,2.8-2.2,4.6-3.1
	c0.9-0.4,1.9-0.9,3.1-1.3c1.3-2.1,3.2-5.3,4.5-8.8c0.1-0.4,0.3-0.7,0.4-1.1c-0.4-0.9-0.7-1.8-0.9-2.5c-0.4-1.4-0.6-2.6-0.7-3.6
	c-0.1-1-0.1-2.1,0.1-3c0.1-1,0.4-1.7,0.7-2.3c0.4-0.6,0.9-1,1.6-1.2c0.3-0.1,0.6-0.2,0.8-0.2c0.3,0,0.7-0.1,1.2,0
	c0.3,0.1,0.6,0.2,0.9,0.4l0,0c1.6,0.8,1.5,2.1,1.3,3.7l-0.1,0.6c-0.2,1.8-0.7,4.7-1.7,7.8c0.1,0.1,0.1,0.2,0.2,0.3
	c0.7,1.4,1.8,2.9,3,4.5c0.6,0.7,1.2,1.5,1.9,2.2c1.1-0.1,2.2-0.1,3.2,0c1.2,0.1,2.3,0.3,3.4,0.5c1.2,0.3,2.1,0.6,2.9,1.1
	c1,0.6,1.8,1.5,2.2,2.4c0.5,1,0.5,2.2,0,3.2c-0.3,0.6-0.9,1.4-2.2,1.8c-0.9,0.3-1.9,0.3-2.9,0c-0.9-0.3-1.9-0.8-3.1-1.6
	c-1.1-0.8-2.2-1.7-3.4-3c-0.4-0.4-0.9-0.9-1.4-1.4c-0.7,0.1-1.6,0.2-2.6,0.4c-1.3,0.2-2.9,0.6-4.9,1.1c-0.9,0.3-1.7,0.5-2.5,0.8
	c-0.1,0.1-0.2,0.3-0.3,0.4c-1.8,2.6-3.5,4.6-5,5.9c-1.2,1-2.3,1.6-3.3,1.7C2.6,33.3,2.4,33.3,2.2,33.3z M5.6,28
	c-0.8,0.5-1.4,1-1.7,1.3c-0.3,0.2-0.4,0.5-0.5,0.6c0.3-0.2,0.6-0.4,0.9-0.7C4.6,29,5,28.5,5.6,28z M25.5,22.8c0.9,0.8,1.6,1.5,2.4,2
	c1.1,0.8,1.8,1.1,2.2,1.2c0.4,0.1,0.7,0.1,1.1,0c0.2-0.1,0.4-0.2,0.4-0.3c0-0.1,0.1-0.4-0.1-0.7c-0.2-0.4-0.5-0.8-1-1.1
	c-0.5-0.3-1.1-0.5-2-0.8c-0.9-0.2-1.9-0.4-2.9-0.5C25.6,22.8,25.6,22.8,25.5,22.8z M16.2,16.4c-0.8,1.8-1.6,3.5-2.5,5
	c1.8-0.5,3.3-0.8,4.5-1c0.3,0,0.5-0.1,0.8-0.1c-0.2-0.3-0.4-0.5-0.6-0.8C17.6,18.4,16.9,17.3,16.2,16.4z M16.4,3l-0.1,0
	c-0.1,0-0.1,0-0.1,0c-0.1,0-0.1,0.1-0.1,0.1c0,0-0.1,0.3-0.3,1c-0.1,0.5-0.1,1.4,0,2.4c0,0.2,0.1,0.5,0.1,0.8c0.2-1.1,0.4-2,0.4-2.7
	l0.1-0.7C16.4,3.6,16.4,3.3,16.4,3C16.4,3,16.4,3,16.4,3z"/>
</svg>
