<?xml version="1.0" encoding="utf-8"?>
<!-- Generator: Adobe Illustrator 16.0.0, SVG Export Plug-In . SVG Version: 6.00 Build 0)  -->
<!DOCTYPE svg PUBLIC "-//W3C//DTD SVG 1.1//EN" "http://www.w3.org/Graphics/SVG/1.1/DTD/svg11.dtd">
<svg version="1.1" id="Warstwa_1" xmlns="http://www.w3.org/2000/svg" xmlns:xlink="http://www.w3.org/1999/xlink" x="0px" y="0px"
	 width="1000px" height="1000px" viewBox="0 0 1000 1000" style="enable-background:new 0 0 1000 1000;" xml:space="preserve">
<g>
	<path style="fill:#E6E7E8;" d="M778.9,308.1H625.6c-5.5,0-14.6-4.1-18.2-8.3l-16.9-19.3c-8.3-9.5-24.2-16.7-36.8-16.7H444.8
		c-12.6,0-28.5,7.2-36.8,16.7l-16.9,19.3c-3.7,4.2-12.7,8.3-18.2,8.3H221.1c-16,0-28.9,13-28.9,28.9v370.1c0,16,13,28.9,28.9,28.9
		h557.7c16,0,28.9-13,28.9-28.9V337.1C807.8,321.1,794.8,308.1,778.9,308.1z M778.9,711.4H221.1c-2.3,0-4.3-1.9-4.3-4.3V543.1h80.2
		c6.8,0,12.3-5.5,12.3-12.3c0-6.8-5.5-12.3-12.3-12.3h-80.2V337.1c0-2.3,1.9-4.3,4.3-4.3v0h151.7c12.7,0,28.5-7.2,36.8-16.7
		l16.9-19.3c3.7-4.2,12.7-8.3,18.3-8.3h108.9c5.5,0,14.6,4.1,18.3,8.3l16.9,19.3c8.3,9.5,24.2,16.7,36.8,16.7h153.3
		c2.3,0,4.3,1.9,4.3,4.3v181.3h-74.7c-6.8,0-12.3,5.5-12.3,12.3c0,6.8,5.5,12.3,12.3,12.3h74.7v164.1
		C783.1,709.5,781.2,711.4,778.9,711.4z"/>
	<path style="fill:#E6E7E8;" d="M500,384.1c-79,0-143.3,64.3-143.3,143.3c0,79,64.3,143.3,143.3,143.3c79,0,143.3-64.3,143.3-143.3
		C643.3,448.4,579,384.1,500,384.1z M500,646c-65.4,0-118.6-53.2-118.6-118.6c0-65.4,53.2-118.6,118.6-118.6
		c65.4,0,118.7,53.2,118.7,118.6C618.7,592.8,565.4,646,500,646z"/>
	<path style="fill:#E6E7E8;" d="M500,450.3c-42.5,0-77.1,34.6-77.1,77.1c0,42.5,34.6,77.1,77.1,77.1c42.5,0,77.1-34.6,77.1-77.1
		C577.1,484.9,542.5,450.3,500,450.3z M500,579.8c-28.9,0-52.4-23.5-52.4-52.4c0-28.9,23.5-52.4,52.4-52.4
		c28.9,0,52.4,23.5,52.4,52.4C552.4,556.3,528.9,579.8,500,579.8z"/>
</g>
</svg>
