<?xml version="1.0" encoding="utf-8"?>
<!-- Generator: Adobe Illustrator 16.0.0, SVG Export Plug-In . SVG Version: 6.00 Build 0)  -->
<!DOCTYPE svg PUBLIC "-//W3C//DTD SVG 1.1//EN" "http://www.w3.org/Graphics/SVG/1.1/DTD/svg11.dtd">
<svg version="1.1" id="Warstwa_1" xmlns="http://www.w3.org/2000/svg" xmlns:xlink="http://www.w3.org/1999/xlink" x="0px" y="0px"
	 width="18.7px" height="16.1px" viewBox="0 0 18.7 16.1" style="enable-background:new 0 0 18.7 16.1;" xml:space="preserve">
<g>
	<path style="fill:#010101;" d="M12,7.7l-5.5,6.6L1.9,9.6l7.4-6.2l2.9,0.5l0.1,0.4c0.1,0.4,0.5,0.7,0.9,0.6c0.4-0.1,0.7-0.5,0.6-0.9
		l-0.2-1c-0.1-0.3-0.3-0.6-0.6-0.6L9.2,1.8C9,1.8,8.7,1.9,8.6,2L0.3,9C0.1,9.1,0,9.3,0,9.5c0,0.2,0.1,0.4,0.2,0.6L6,15.9
		c0.1,0.1,0.3,0.2,0.5,0.2c0,0,0,0,0,0c0.2,0,0.4-0.1,0.5-0.3l6-7.2c0.3-0.3,0.2-0.8-0.1-1.1C12.8,7.3,12.3,7.3,12,7.7z"/>
	<path style="fill:#010101;" d="M18.6,0.6c-0.1-0.4-0.5-0.6-0.9-0.5c-0.4,0.1-0.6,0.5-0.5,0.9c0,0,0.6,2.3-0.7,3.5
		c-1,0.9-2.9,1.1-5.6,0.4C10.2,4.4,9.2,4.4,8.6,5C8.3,5.3,8.1,5.7,8.1,6.2s0.2,0.9,0.5,1.2C9,7.7,9.4,7.9,9.8,7.9s0.9-0.2,1.2-0.5
		c0.2-0.2,0.4-0.5,0.5-0.9c0.8,0.2,1.6,0.3,2.3,0.3c1.6,0,2.8-0.4,3.6-1.3C19.3,3.7,18.6,0.7,18.6,0.6z M10,6.3
		c-0.1,0.1-0.2,0.1-0.3,0c0,0-0.1-0.1-0.1-0.1s0-0.1,0.1-0.1C9.8,6,9.8,6,9.8,6c0,0,0,0,0,0c0,0.1,0.1,0.1,0.2,0.1
		C10,6.2,10,6.3,10,6.3z"/>
</g>
</svg>
