<?xml version="1.0" encoding="utf-8"?>
<!-- Generator: Adobe Illustrator 16.0.0, SVG Export Plug-In . SVG Version: 6.00 Build 0)  -->
<!DOCTYPE svg PUBLIC "-//W3C//DTD SVG 1.1//EN" "http://www.w3.org/Graphics/SVG/1.1/DTD/svg11.dtd">
<svg version="1.1" id="Warstwa_1" xmlns="http://www.w3.org/2000/svg" xmlns:xlink="http://www.w3.org/1999/xlink" x="0px" y="0px"
	 width="20.1px" height="20.1px" viewBox="0 0 20.1 20.1" style="enable-background:new 0 0 20.1 20.1;" xml:space="preserve">
<path style="fill:#010101;" d="M10,0C4.5,0,0,4.5,0,10c0,5.5,4.5,10,10,10c1.2,0,2.5-0.2,3.6-0.7c0.4-0.1,0.6-0.6,0.4-1
	c-0.1-0.4-0.6-0.6-1-0.4c-1,0.4-2,0.6-3.1,0.6c-2.3,0-4.4-0.9-6-2.4c0.1,0.1,0.3,0.2,0.5,0.2c0.4,0,0.8-0.3,0.8-0.8
	c0-0.8,0.2-1.7,0.6-2.4c0.8-1.5,2.4-2.4,4.1-2.4c2.4,0,4.3,1.7,4.7,4H7.3c-0.4,0-0.8,0.3-0.8,0.8s0.3,0.8,0.8,0.8h8.3
	c0.4,0,0.8-0.3,0.8-0.8c0-3.1-2.2-5.6-5.1-6.1c1.3-0.5,2.3-1.7,2.3-3.2c0-1.9-1.5-3.4-3.4-3.4c-1.9,0-3.4,1.5-3.4,3.4
	c0,1.5,1,2.7,2.3,3.2c-1.8,0.3-3.4,1.4-4.3,3c-0.5,0.9-0.8,2-0.8,3.1c0,0.2,0.1,0.4,0.2,0.5c-1.5-1.5-2.5-3.7-2.5-6
	c0-4.7,3.8-8.5,8.5-8.5c4.7,0,8.5,3.8,8.5,8.5c0,1.4-0.4,2.8-1,4.1c-0.2,0.4-0.1,0.8,0.3,1c0.4,0.2,0.8,0.1,1-0.3
	c0.8-1.5,1.2-3.1,1.2-4.8C20.1,4.5,15.6,0,10,0z M8.2,6.3c0-1,0.8-1.9,1.9-1.9c1,0,1.9,0.8,1.9,1.9c0,1-0.8,1.9-1.9,1.9
	C9,8.1,8.2,7.3,8.2,6.3z"/>
</svg>
