<?xml version="1.0" encoding="utf-8"?>
<!-- Generator: Adobe Illustrator 16.0.0, SVG Export Plug-In . SVG Version: 6.00 Build 0)  -->
<!DOCTYPE svg PUBLIC "-//W3C//DTD SVG 1.1//EN" "http://www.w3.org/Graphics/SVG/1.1/DTD/svg11.dtd">
<svg version="1.1" id="Warstwa_1" xmlns="http://www.w3.org/2000/svg" xmlns:xlink="http://www.w3.org/1999/xlink" x="0px" y="0px"
	 width="27.8px" height="27.8px" viewBox="0 0 27.8 27.8" style="enable-background:new 0 0 27.8 27.8;" xml:space="preserve">
<g>
	<path style="fill:#010101;" d="M14.4,27.8c-1.7,0-3.1-1.3-3.2-3c-0.9-0.2-1.8-0.6-2.6-1l0,0c-1.2,1.1-3.3,1.1-4.5-0.1
		c-1.2-1.2-1.3-3.1-0.2-4.4c-0.4-0.7-0.7-1.4-0.9-2.2c-1.7-0.1-3-1.5-3-3.2c0-1.7,1.3-3.1,3-3.2c0.2-0.7,0.5-1.5,0.9-2.2
		c-1.1-1.3-1-3.2,0.2-4.4c1.2-1.2,3.3-1.2,4.5-0.1c0.8-0.4,1.6-0.7,2.5-1c0.1-1.7,1.5-3,3.2-3c1.7,0,3.1,1.4,3.2,3.1c0,0,0,0,0,0
		c0.5,0.2,1.1,0.4,1.8,0.8c1.2-1,3.2-0.9,4.3,0.3c0.6,0.6,1,1.4,1,2.3c0,0.8-0.3,1.5-0.8,2.1c0.4,0.7,0.7,1.4,0.9,2.2
		c1.7,0.1,3,1.5,3,3.2c0,1.8-1.5,3.3-3.3,3.3c-0.4,0-0.8-0.3-0.8-0.8s0.3-0.8,0.8-0.8c1,0,1.8-0.8,1.8-1.8c0-1-0.8-1.8-1.8-1.8h-0.3
		c-0.3,0-0.6-0.2-0.7-0.6c-0.2-1-0.6-1.9-1.2-2.8c-0.2-0.3-0.1-0.7,0.1-0.9l0.2-0.2c0.3-0.3,0.5-0.8,0.5-1.2S23,5.5,22.7,5.1
		c-0.6-0.6-1.6-0.7-2.2-0.2c0,0.2-0.1,0.4-0.3,0.5c-0.2,0.2-0.6,0.2-0.8,0c-0.7-0.4-1.5-0.8-2.2-1c-0.2-0.1-0.4-0.1-0.5-0.2
		c-0.3-0.1-0.5-0.4-0.5-0.7V3.3c0-1-0.8-1.8-1.8-1.8c-1,0-1.8,0.8-1.8,1.8v0.3c0,0.4-0.2,0.7-0.6,0.7c-1.2,0.2-2.2,0.6-3,1.2
		c-0.2,0.2-0.6,0.1-0.8,0L7.9,5.2c0,0-0.1-0.1-0.1-0.1C7,4.4,5.9,4.4,5.2,5.1c-0.7,0.7-0.7,1.8,0,2.5l0.2,0.2
		c0.2,0.2,0.3,0.6,0.1,0.9c-0.6,0.9-1,1.9-1.2,2.8c-0.1,0.3-0.4,0.6-0.7,0.6H3.3c-1,0-1.8,0.8-1.8,1.8c0,1,0.8,1.8,1.8,1.8h0.3
		c0.3,0,0.6,0.2,0.7,0.6c0.2,1,0.6,1.9,1.2,2.8c0.2,0.3,0.1,0.7-0.1,0.9l-0.2,0.2c-0.7,0.7-0.7,1.8,0,2.5c0.7,0.7,1.8,0.7,2.5,0
		c0.1-0.1,0.1-0.1,0.2-0.2l0.5-0.2c0.2-0.1,0.5-0.1,0.7,0c0.9,0.5,1.9,0.9,3,1.2c0.3,0.1,0.6,0.4,0.6,0.7v0.3c0,1,0.8,1.8,1.8,1.8
		c1,0,1.8-0.8,1.8-1.8v-0.3c0-0.3,0.2-0.6,0.5-0.7c0.1-0.1,0.3-0.1,0.5-0.2c0.6-0.3,1.5-0.6,2.2-1c0.2-0.1,0.4-0.1,0.6-0.1
		c0.2,0.1,0.4,0.2,0.5,0.4l0,0.1c0.7,0.6,1.7,0.5,2.3-0.1c0.3-0.3,0.5-0.8,0.5-1.2c0-0.5-0.2-0.9-0.5-1.3c-0.1-0.1-0.1-0.2-0.2-0.3
		l-0.1-0.2c-0.1-0.4,0.1-0.8,0.4-1c0.4-0.1,0.8,0.1,1,0.4l0,0.1c0.5,0.6,0.8,1.4,0.8,2.2c0,0.9-0.3,1.7-0.9,2.3
		c-1.2,1.2-3.1,1.2-4.3,0.2c-0.6,0.3-1.3,0.6-1.8,0.8l0,0C17.5,26.4,16.1,27.8,14.4,27.8z"/>
	<path style="fill:#010101;" d="M13.9,19.7c-0.4,0-0.8-0.3-0.8-0.8s0.3-0.8,0.8-0.8c2,0,3.6-1.6,3.6-3.6s-1.6-3.6-3.6-3.6
		c-2,0-3.6,1.6-3.6,3.6c0,0.4-0.3,0.8-0.8,0.8s-0.8-0.3-0.8-0.8c0-2.8,2.3-5.1,5.1-5.1c2.8,0,5.1,2.3,5.1,5.1S16.7,19.7,13.9,19.7z"
		/>
	<path style="fill:#010101;" d="M11.6,19c-0.1,0-0.3,0-0.4-0.1c-0.6-0.4-1.1-0.9-1.6-1.5c-0.2-0.3-0.2-0.8,0.2-1
		c0.3-0.2,0.8-0.2,1,0.2c0.3,0.4,0.7,0.8,1.1,1c0.4,0.2,0.5,0.7,0.3,1C12.1,18.9,11.9,19,11.6,19z"/>
</g>
</svg>
